# AST/ASF file generated using VICON BodyLanguage
# -----------------------------------------------
:version 1.10
:name VICON
:units
  mass 1.0
  length 0.45
  angle deg
:documentation
   .ast/.asf automatically generated from VICON data using
   VICON BodyBuilder and BodyLanguage model FoxedUp or BRILLIANT.MOD
:root
   order TX TY TZ RX RY RZ
   axis XYZ
   position 0 0 0  
   orientation 0 0 0 
:bonedata
  begin
     id 1 
     name lhipjoint
     direction 0.627457 -0.725269 0.283342 
     length 2.53237 
     axis 0 0 0  XYZ
  end
  begin
     id 2 
     name lfemur
     direction 0.34202 -0.939693 0  
     length 7.32496  
     axis 0 0 20  XYZ
    dof rx ry rz
    limits (-160.0 20.0)
           (-70.0 70.0)
           (-60.0 70.0)
  end
  begin
     id 3 
     name ltibia
     direction 0.34202 -0.939693 0   
     length 7.69674   
     axis 0 0 20   XYZ
    dof rx
    limits (-10.0 170.0)
  end
  begin
     id 4 
     name lfoot
     direction 0.127289 -0.349722 0.928166   
     length 1.8612   
     axis -90 7.62852e-016 20   XYZ
    dof rx rz
    limits (-45.0 90.0)
           (-70.0 20.0)
  end
  begin
     id 5 
     name ltoes
     direction 1.53561e-011 -4.21864e-011 1   
     length 0.925608   
     axis -90 7.62852e-016 20   XYZ
    dof rx
    limits (-90.0 20.0)
  end
  begin
     id 6 
     name rhipjoint
     direction -0.609094 -0.738725 0.288599   
     length 2.48624  
     axis 0 0 0  XYZ 
  end
  begin
     id 7 
     name rfemur
     direction -0.34202 -0.939693 0   
     length 7.44259   
     axis 0 0 -20   XYZ
    dof rx ry rz
    limits (-160.0 20.0)
           (-70.0 70.0)
           (-70.0 60.0)
  end
  begin
     id 8 
     name rtibia
     direction -0.34202 -0.939693 0   
     length 7.7781   
     axis 0 0 -20   XYZ
    dof rx
    limits (-10.0 170.0)
 end
 begin
     id 9 
     name rfoot
     direction -0.107015 -0.294021 0.949789   
     length 2.14741  
     axis -90 -7.62852e-016 -20   XYZ
    dof rx rz
    limits (-45.0 90.0)
           (-20.0 70.0)
  end
  begin
     id 10 
     name rtoes
     direction -1.53497e-011 -4.21924e-011 1   
     length 1.0706   
     axis -90 -7.62852e-016 -20   XYZ
    dof rx
    limits (-90.0 20.0)
  end
  begin
     id 11 
     name lowerback
     direction -0.0142066 0.998112 -0.0597545   
     length 1.86627   
     axis 0 0 0   XYZ
    dof rx ry rz
    limits (-20.0 45.0)
           (-30.0 30.0)
           (-30.0 30.0)
  end
  begin
     id 12 
     name upperback
     direction 0.00547294 0.999744 0.0219437   
     length 1.86272   
     axis 0 0 0   XYZ
    dof rx ry rz
    limits (-20.0 45.0)
           (-30.0 30.0)
           (-30.0 30.0)
  end
  begin
     id 13 
     name thorax
     direction 0.0116162 0.998704 0.0495538   
     length 1.8703   
     axis 0 0 0   XYZ
    dof rx ry rz
    limits (-20.0 45.0)
           (-30.0 30.0)
           (-30.0 30.0)
  end
  begin
     id 14 
     name lowerneck
     direction -0.0106574 0.998739 0.0490586   
     length 1.8074   
     axis 0 0 0   XYZ
    dof rx ry rz
    limits (-20.0 45.0)
           (-30.0 30.0)
           (-30.0 30.0)
  end
  begin
     id 15 
     name upperneck
     direction 0.030527 0.976587 -0.212944   
     length 1.80681   
     axis 0 0 0   XYZ
    dof rx ry rz
    limits (-20.0 45.0)
           (-30.0 30.0)
           (-30.0 30.0)
  end
  begin
     id 16
     name head
     direction 0.00869225 0.997035 -0.0764531  
     length 1.8313  
     axis 0 0 0   XYZ
    dof rx ry rz
    limits (-20.0 45.0)
           (-30.0 30.0)
           (-30.0 30.0)
  end
  begin
     id 17 
     name lclavicle
     direction 0.915958 0.399447 0.0382386  
     length 3.78965  
     axis 0 0 0   XYZ
    dof ry rz
    limits (-20.0 10.0)
           (0.0 20.0)
  end
  begin
     id 18 
     name lhumerus
     direction 1 -4.48967e-011 3.19303e-027   
     length 4.78095   
     axis -180 -30 -90   XYZ
    dof rx ry rz
    limits (-60.0 90.0)
           (-90.0 90.0)
           (-90.0 90.0)
  end
  begin
     id 19
     name lradius
     direction 1 -4.48967e-011 -3.77974e-027   
     length 3.58615   
     axis -180 -30 -90   XYZ
    dof rx
    limits (-10.0 170.0)
  end
  begin
     id 20
     name lwrist
     direction 1 -4.48927e-011 1.2807e-027   
     length 1.79307   
     axis 1.91374e-015 90 90   XYZ
    dof ry
    limits (-180.0 0.0)
 end
  begin
     id 21 
     name lhand
     direction 1 -4.49036e-011 2.5614e-027   
     length 0.659812   
     axis -1.63439e-015 90 90   XYZ
    dof rx rz
    limits (-90.0 90.0)
           (-45.0 45.0)
  end
  begin
     id 22 
     name lfingers
     direction 1 -4.49052e-011 5.1228e-027   
     length 0.531957   
     axis -3.26879e-015 90 90   XYZ
    dof rx
    limits (0.0 90.0)
  end
  begin
     id 23
     name lthumb
     direction 0.707107 -6.35012e-011 0.707107   
     length 0.763787   
     axis -90 45 2.85299e-015   XYZ
    dof rx rz
    limits (-45.0 45.0)
           (-45.0 45.0)
  end
  begin
     id 24 
     name rclavicle
     direction -0.895351 0.435135 0.0948887   
     length 3.70497  
     axis 0 0 0   XYZ 
    dof ry rz
    limits (-10.0 20.0)
           (-20.0 0.0)
  end
  begin
     id 25 
     name rhumerus
     direction -1 -4.48971e-011 2.38946e-027  
     length 4.48913   
     axis -180 30 90   XYZ
    dof rx ry rz
    limits (-90.0 60.0)
           (-90.0 90.0)
           (-90.0 90.0)
  end
  begin
     id 26 
     name rradius
     direction -1 -4.4895e-011 4.38668e-027   
     length 3.7051   
     axis -180 30 90   XYZ
    dof rx
    limits (-10.0 170.0)
  end
  begin
     id 27 
     name rwrist
     direction -1 -4.49007e-011 1.2807e-027   
     length 1.85255   
     axis 1.91374e-015 -90 -90   XYZ
    dof ry
    limits (-180.0 0.0)
  end
  begin
     id 28
     name rhand
     direction -1 -4.48851e-011 2.5614e-027   
     length 0.449136   
     axis -1.63439e-015 -90 -90   XYZ
    dof rx rz
    limits (-90.0 90.0)
           (-45.0 45.0)
  end
  begin
     id 29
     name rfingers
     direction -1 -4.49128e-011 5.1228e-027   
     length 0.362105   
     axis -3.26879e-015 -90 -90   XYZ
    dof rx
    limits (0.0 90.0)
  end
  begin
     id 30
     name rthumb
     direction -0.707107 -6.34851e-011 0.707107   
     length 0.519912   
     axis -90 -45 -2.85299e-015   XYZ
    dof rx rz
    limits (-45.0 45.0)
           (-45.0 45.0)
  end
:hierarchy
  begin
    root lhipjoint rhipjoint lowerback
    lhipjoint lfemur
    lfemur ltibia
    ltibia lfoot
    lfoot ltoes
    rhipjoint rfemur
    rfemur rtibia
    rtibia rfoot
    rfoot rtoes
    lowerback upperback
    upperback thorax
    thorax lowerneck lclavicle rclavicle
    lowerneck upperneck
    upperneck head
    lclavicle lhumerus
    lhumerus lradius
    lradius lwrist
    lwrist lhand lthumb
    lhand lfingers
    rclavicle rhumerus
    rhumerus rradius
    rradius rwrist
    rwrist rhand rthumb
    rhand rfingers
  end

#!OML:ASF I:\Actors\actors\Patient Classification 2\Patient 1\Session 1\actor1.ASF
:FULLY-SPECIFIED
:DEGREES
79
root -0.454271 18.7857 4.8526 7.58206 10.8229 -12.7474
lowerback 22.8515 3.5687 -0.655497
upperback 9.93217 4.3973 -2.53422
thorax -1.67467 2.23465 -3.37736
lowerneck 5.46179 -12.4317 -9.18924
upperneck 30.0764 -20.5864 15.2438
head 11.628 -9.35405 5.25593
rclavicle 1.43125e-014 -4.77083e-015
rhumerus 10.6205 35.3291 -70.3868
rradius 35.2247
rwrist 20.2406
rhand -1.74956 -34.1
rfingers 7.12502
rthumb 23.9136 -62.631
lclavicle 1.43125e-014 -4.77083e-015
lhumerus -19.5829 -6.84134 79.574
lradius 45.3358
lwrist 2.81686
lhand -8.53981 -25.3235
lfingers 7.12502
lthumb 17.3894 3.9186
rfemur -3.3355 -11.2605 28.0642
rtibia -5.56597e-015
rfoot -14.4393 -11.4738
rtoes -0.454399
lfemur -25.6872 -5.5788 0.323201
ltibia 32.4803
lfoot -18.014 5.10507
ltoes -56.7586
80
root -0.431431 18.7843 4.87052 7.4018 11.1026 -12.9467
lowerback 23.0844 3.66247 -0.833017
upperback 10.0221 4.48043 -2.48587
thorax -1.70332 2.27 -3.25735
lowerneck 5.32215 -12.6679 -9.36013
upperneck 30.3046 -20.8004 14.7653
head 11.7428 -9.48579 5.06151
rclavicle -6.83819e-014 2.06736e-014
rhumerus 11.7902 33.2916 -71.0929
rradius 34.985
rwrist 23.1465
rhand -1.64048 -33.6877
rfingers 7.12502
rthumb 24.0182 -62.205
lclavicle -6.83819e-014 2.06736e-014
lhumerus -19.3303 -6.91545 79.5517
lradius 45.5088
lwrist 3.04201
lhand -8.73206 -25.2808
lfingers 7.12502
lthumb 17.2043 3.97759
rfemur -3.12571 -11.5402 28.1887
rtibia -6.36111e-015
rfoot -14.4292 -11.456
rtoes -0.611281
lfemur -25.645 -5.8534 0.476906
ltibia 32.6154
lfoot -18.1088 5.06968
ltoes -56.6816
81
root -0.409358 18.7833 4.88889 7.27583 11.3597 -13.1264
lowerback 23.1679 3.73619 -1.10524
upperback 10.0822 4.52279 -2.41282
thorax -1.70317 2.28167 -3.03897
lowerneck 5.4163 -12.8335 -9.75386
upperneck 30.3861 -20.9359 14.4384
head 11.786 -9.61405 4.9835
rclavicle 6.52014e-014 -2.54444e-014
rhumerus 12.9201 29.4488 -73.0773
rradius 34.0648
rwrist 28.1158
rhand -1.01905 -32.5629
rfingers 7.12502
rthumb 24.6139 -61.0003
lclavicle 6.52014e-014 -2.54444e-014
lhumerus -19.2149 -6.79045 79.5386
lradius 45.7346
lwrist 3.26663
lhand -8.8444 -25.1488
lfingers 7.12502
lthumb 17.0962 4.11895
rfemur -2.96719 -11.7927 28.3036
rtibia 1.90833e-014
rfoot -14.388 -11.4338
rtoes -1.08086
lfemur -25.645 -5.95691 0.589933
ltibia 32.7346
lfoot -18.1477 4.94247
ltoes -56.6569
82
root -0.393448 18.7824 4.91175 7.00265 11.5083 -13.282
lowerback 23.3695 3.86051 -1.36914
upperback 10.1837 4.62496 -2.40453
thorax -1.70599 2.32474 -2.91583
lowerneck 5.78104 -12.9745 -10.442
upperneck 30.1628 -21.1513 14.6471
head 11.7769 -9.79957 5.15522
rclavicle -1.59028e-015 -3.33958e-014
rhumerus 14.5075 28.759 -73.1299
rradius 34.056
rwrist 29.6724
rhand -0.669307 -32.3573
rfingers 7.12502
rthumb 24.9491 -60.7486
lclavicle -1.59028e-015 -3.33958e-014
lhumerus -18.9566 -6.64301 79.4551
lradius 45.8894
lwrist 3.50524
lhand -8.77289 -24.8573
lfingers 7.12502
lthumb 17.165 4.40455
rfemur -2.58984 -11.9608 28.3634
rtibia 7.15625e-015
rfoot -14.4115 -11.3706
rtoes -1.33041
lfemur -25.4132 -5.94551 0.650331
ltibia 32.8475
lfoot -18.2372 4.77225
ltoes -56.7327
83
root -0.377381 18.7815 4.9345 6.62693 11.648 -13.4041
lowerback 23.7248 3.98087 -1.72865
upperback 10.3409 4.6986 -2.34826
thorax -1.73516 2.34926 -2.68976
lowerneck 6.03759 -13.1141 -11.1521
upperneck 29.8836 -21.3294 14.7462
head 11.748 -9.9718 5.28301
rclavicle 5.88403e-014 -8.42847e-014
rhumerus 16.2127 28.0346 -73.3758
rradius 33.872
rwrist 31.3483
rhand -0.671312 -31.9632
rfingers 7.12502
rthumb 24.9472 -60.3548
lclavicle 5.88403e-014 -8.42847e-014
lhumerus -18.5869 -6.31135 79.4584
lradius 46.0027
lwrist 3.65737
lhand -8.73789 -24.4341
lfingers 7.12502
lthumb 17.1987 4.82473
rfemur -2.08886 -12.1411 28.3578
rtibia 1.43125e-014
rfoot -14.4841 -11.3294
rtoes -1.54486
lfemur -25.0638 -5.96702 0.659486
ltibia 32.9583
lfoot -18.3425 4.59482
ltoes -56.7864
84
root -0.342293 18.7819 4.95335 6.55224 12.0446 -13.4769
lowerback 23.607 3.86046 -2.2835
upperback 10.521 4.45629 -2.06579
thorax -1.55275 2.2069 -2.00021
lowerneck 6.06361 -13.1421 -12.0898
upperneck 29.6598 -21.2397 14.4286
head 11.7083 -10.0528 5.30799
rclavicle 7.31528e-014 9.54166e-015
rhumerus 18.8147 29.2096 -71.605
rradius 34.0699
rwrist 30.984
rhand -0.86993 -31.5673
rfingers 7.12502
rthumb 24.7569 -59.9852
lclavicle 7.31528e-014 9.54166e-015
lhumerus -18.1821 -4.413 79.8347
lradius 45.5599
lwrist 2.78658
lhand -8.71707 -24.5885
lfingers 7.12502
lthumb 17.2188 4.6686
rfemur -1.98798 -12.5486 28.3201
rtibia 9.54166e-015
rfoot -14.4722 -11.3504
rtoes -1.78741
lfemur -25.1719 -6.37584 0.641689
ltibia 33.0756
lfoot -18.43 4.65966
ltoes -56.7877
